<?xml version="1.0" encoding="utf-8"?>
<!-- Generator: Adobe Illustrator 19.0.0, SVG Export Plug-In . SVG Version: 6.00 Build 0)  -->
<svg version="1.1" id="Layer_1" xmlns="http://www.w3.org/2000/svg" xmlns:xlink="http://www.w3.org/1999/xlink" x="0px" y="0px"
	 viewBox="0 0 1000 260" style="enable-background:new 0 0 1000 260;" xml:space="preserve">
<style type="text/css">
	.st0{fill:#FBB145;}
	.st1{fill:#EB8923;}
	.st2{fill:#F8991D;}
	.st3{fill:#FFFFFF;}
</style>
<g id="XMLID_6037_">
	<g id="XMLID_6286_">
		<polygon id="XMLID_14_" class="st0" points="228.613,155 228.613,192.5 120.363,255 120.363,130 228.613,67.5 228.613,105 
			212.375,114.375 212.375,95.625 196.138,105 136.6,139.375 136.6,208.113 136.6,226.875 212.375,183.125 212.375,164.375 		"/>
		<polygon id="XMLID_13_" class="st1" points="228.613,67.5 120.363,130 12.113,67.5 28.35,58.125 120.363,111.25 212.375,58.125 		
			"/>
		<polygon id="XMLID_12_" class="st1" points="228.613,155 212.375,164.375 196.138,155 212.375,145.625 		"/>
		<polygon id="XMLID_11_" class="st2" points="196.138,173.725 196.138,155 212.375,164.375 212.375,183.125 196.138,173.75 		"/>
		<polygon id="XMLID_10_" class="st2" points="212.375,95.625 212.375,114.375 196.138,105 		"/>
		<polygon id="XMLID_9_" class="st1" points="196.138,173.75 212.375,183.125 136.6,226.875 136.6,208.113 196.138,173.725 		"/>
		<polygon id="XMLID_8_" class="st0" points="196.138,48.75 196.138,58.125 120.763,101.65 120.363,100.963 120.363,92.5 		"/>
		<polygon id="XMLID_7_" class="st1" points="196.138,48.75 120.363,92.5 44.588,48.75 120.363,5 		"/>
		<path id="XMLID_4_" class="st2" d="M120.363,130v125l-108.25-62.5v-125L120.363,130z M104.125,226.875v-18.75v-68.75L44.588,105
			L28.35,95.625v87.5L104.125,226.875z"/>
		<polygon id="XMLID_3_" class="st2" points="120.363,100.963 120.763,101.65 120.363,101.875 44.588,58.125 44.588,48.75 
			120.363,92.5 		"/>
		<polygon id="XMLID_2_" class="st1" points="104.125,208.125 104.125,226.875 28.35,183.125 44.588,173.75 		"/>
		<polygon id="XMLID_1_" class="st0" points="44.588,105 44.588,173.75 28.35,183.125 28.35,95.625 		"/>
	</g>
	<g id="XMLID_6285_">
	</g>
</g>
<g id="XMLID_26_">
	<g id="XMLID_241_">
		<path id="XMLID_261_" class="st3" d="M282.292,71.471c2.688,1.508,4.816,3.551,6.387,6.129s2.355,5.414,2.355,8.508
			c0,3.109-0.785,5.961-2.355,8.555s-3.699,4.648-6.387,6.164s-5.625,2.273-8.813,2.273c-3.234,0-6.195-0.758-8.883-2.273
			s-4.816-3.57-6.387-6.164s-2.355-5.445-2.355-8.555s0.785-5.957,2.355-8.543s3.699-4.625,6.387-6.117s5.648-2.238,8.883-2.238
			C276.667,69.209,279.604,69.963,282.292,71.471z M266.636,74.647c-2.094,1.188-3.766,2.789-5.016,4.805s-1.875,4.234-1.875,6.656
			c0,2.438,0.625,4.672,1.875,6.703s2.922,3.637,5.016,4.816s4.375,1.77,6.844,1.77s4.738-0.59,6.809-1.77s3.723-2.785,4.957-4.816
			s1.852-4.266,1.852-6.703s-0.617-4.66-1.852-6.668s-2.891-3.605-4.969-4.793s-4.344-1.781-6.797-1.781
			C271.011,72.866,268.729,73.459,266.636,74.647z"/>
		<path id="XMLID_258_" class="st3" d="M300.151,94.428l-3.75,8.484h-4.078l15.07-33.609h3.984l15.023,33.609h-4.172l-3.75-8.484
			H300.151z M309.269,73.686l-7.477,17.039h15.07L309.269,73.686z"/>
		<path id="XMLID_256_" class="st3" d="M347.003,70.006c1.891,0.563,3.539,1.32,4.945,2.273l-1.641,3.609
			c-1.438-0.953-2.973-1.664-4.605-2.133s-3.184-0.703-4.652-0.703c-2.172,0-3.906,0.391-5.203,1.172s-1.945,1.883-1.945,3.305
			c0,1.219,0.359,2.227,1.078,3.023s1.621,1.418,2.707,1.863s2.574,0.957,4.465,1.535c2.297,0.734,4.145,1.422,5.543,2.063
			s2.594,1.586,3.586,2.836s1.488,2.898,1.488,4.945c0,1.859-0.504,3.484-1.512,4.875s-2.434,2.469-4.277,3.234
			s-3.969,1.148-6.375,1.148s-4.742-0.465-7.008-1.395s-4.211-2.176-5.836-3.738l1.711-3.445c1.531,1.5,3.301,2.664,5.309,3.492
			s3.965,1.242,5.871,1.242c2.438,0,4.359-0.473,5.766-1.418s2.109-2.215,2.109-3.809c0-1.25-0.367-2.281-1.102-3.094
			s-1.645-1.445-2.73-1.898s-2.574-0.961-4.465-1.523c-2.266-0.672-4.105-1.32-5.52-1.945s-2.609-1.555-3.586-2.789
			s-1.465-2.859-1.465-4.875c0-1.734,0.48-3.258,1.441-4.57s2.324-2.328,4.09-3.047s3.797-1.078,6.094-1.078
			C343.206,69.163,345.112,69.444,347.003,70.006z"/>
		<path id="XMLID_254_" class="st3" d="M360.62,102.913V69.303h3.844v33.609H360.62z"/>
		<path id="XMLID_252_" class="st3" d="M390.339,70.006c1.891,0.563,3.539,1.32,4.945,2.273l-1.641,3.609
			c-1.438-0.953-2.973-1.664-4.605-2.133s-3.184-0.703-4.652-0.703c-2.172,0-3.906,0.391-5.203,1.172s-1.945,1.883-1.945,3.305
			c0,1.219,0.359,2.227,1.078,3.023s1.621,1.418,2.707,1.863s2.574,0.957,4.465,1.535c2.297,0.734,4.145,1.422,5.543,2.063
			s2.594,1.586,3.586,2.836s1.488,2.898,1.488,4.945c0,1.859-0.504,3.484-1.512,4.875s-2.434,2.469-4.277,3.234
			s-3.969,1.148-6.375,1.148s-4.742-0.465-7.008-1.395s-4.211-2.176-5.836-3.738l1.711-3.445c1.531,1.5,3.301,2.664,5.309,3.492
			s3.965,1.242,5.871,1.242c2.438,0,4.359-0.473,5.766-1.418s2.109-2.215,2.109-3.809c0-1.25-0.367-2.281-1.102-3.094
			s-1.645-1.445-2.73-1.898s-2.574-0.961-4.465-1.523c-2.266-0.672-4.105-1.32-5.52-1.945s-2.609-1.555-3.586-2.789
			s-1.465-2.859-1.465-4.875c0-1.734,0.48-3.258,1.441-4.57s2.324-2.328,4.09-3.047s3.797-1.078,6.094-1.078
			C386.542,69.163,388.448,69.444,390.339,70.006z"/>
		<path id="XMLID_250_" class="st3" d="M424.933,70.51c2.141,0.867,4.031,2.066,5.672,3.598l-2.32,2.93
			c-1.313-1.313-2.84-2.344-4.582-3.094s-3.527-1.125-5.355-1.125c-2.5,0-4.797,0.59-6.891,1.77s-3.746,2.781-4.957,4.805
			s-1.816,4.246-1.816,6.668c0,2.406,0.605,4.625,1.816,6.656s2.867,3.637,4.969,4.816s4.395,1.77,6.879,1.77
			c1.828,0,3.605-0.352,5.332-1.055s3.262-1.695,4.605-2.977l2.367,2.648c-1.703,1.594-3.641,2.855-5.813,3.785
			s-4.398,1.395-6.68,1.395c-3.172,0-6.082-0.758-8.73-2.273s-4.75-3.578-6.305-6.188s-2.332-5.469-2.332-8.578
			c0-3.078,0.785-5.902,2.355-8.473s3.691-4.609,6.363-6.117s5.602-2.262,8.789-2.262C420.581,69.209,422.792,69.643,424.933,70.51z
			"/>
		<path id="XMLID_247_" class="st3" d="M459.995,71.471c2.688,1.508,4.816,3.551,6.387,6.129s2.355,5.414,2.355,8.508
			c0,3.109-0.785,5.961-2.355,8.555s-3.699,4.648-6.387,6.164s-5.625,2.273-8.813,2.273c-3.234,0-6.195-0.758-8.883-2.273
			s-4.816-3.57-6.387-6.164s-2.355-5.445-2.355-8.555s0.785-5.957,2.355-8.543s3.699-4.625,6.387-6.117s5.648-2.238,8.883-2.238
			C454.37,69.209,457.308,69.963,459.995,71.471z M444.339,74.647c-2.094,1.188-3.766,2.789-5.016,4.805s-1.875,4.234-1.875,6.656
			c0,2.438,0.625,4.672,1.875,6.703s2.922,3.637,5.016,4.816s4.375,1.77,6.844,1.77s4.738-0.59,6.809-1.77s3.723-2.785,4.957-4.816
			s1.852-4.266,1.852-6.703s-0.617-4.66-1.852-6.668s-2.891-3.605-4.969-4.793s-4.344-1.781-6.797-1.781
			C448.714,72.866,446.433,73.459,444.339,74.647z"/>
		<path id="XMLID_244_" class="st3" d="M498.116,71.518c2.617,1.477,4.688,3.492,6.211,6.047s2.285,5.402,2.285,8.543
			s-0.762,5.992-2.285,8.555s-3.613,4.578-6.27,6.047s-5.609,2.203-8.859,2.203h-13.453V69.303h13.594
			C492.573,69.303,495.499,70.042,498.116,71.518z M479.589,99.256h9.797c2.469,0,4.719-0.566,6.75-1.699s3.637-2.699,4.816-4.699
			s1.77-4.234,1.77-6.703s-0.602-4.699-1.805-6.691s-2.828-3.566-4.875-4.723s-4.313-1.734-6.797-1.734h-9.656V99.256z"/>
		<path id="XMLID_242_" class="st3" d="M517.44,73.006v11.039h16.945v3.703H517.44v11.508h19.594v3.656h-23.438V69.303h22.805v3.703
			H517.44z"/>
	</g>
</g>
<path id="XMLID_6035_" class="st2" d="M576.396,96.213l0.683,2.182l-8.839-1.101c0,0-0.414,0-0.612,0.197
	c-0.197,0.197-0.296,0.493-0.296,0.493l0.115,9.407l-0.509-0.004h-0.541l0.142-9.403c0,0-0.095-0.296-0.292-0.493
	c-0.197-0.197-0.616-0.197-0.616-0.197l-8.838,1.101l0.687-2.182c0,0,0.111-0.513,0.071-0.9c-0.043-0.387-0.383-0.623-0.383-0.623
	l-9.008-7.406l2.083-0.994c0,0,0.209-0.138,0.264-0.312c0.095-0.371-0.012-0.687-0.012-0.687l-1.61-5.769l5.015,1.054
	c0,0,0.564,0.039,0.758-0.055c0.193-0.095,0.363-0.379,0.363-0.379l0.718-2.411l4.246,4.676c0,0,0.596,0.592,1.132,0.363
	c0.497-0.213,0.241-1.034,0.241-1.034l-1.819-9.778l2.79,1.409c0,0,0.395,0.15,0.655,0.075c0.26-0.075,0.446-0.296,0.446-0.296
	l3.508-6.25l3.504,6.25c0,0,0.189,0.221,0.45,0.296c0.26,0.075,0.651-0.075,0.651-0.075l2.794-1.409l-1.823,9.778
	c0,0-0.253,0.821,0.245,1.034c0.533,0.229,1.129-0.363,1.129-0.363l4.246-4.676l0.718,2.411c0,0,0.17,0.284,0.363,0.379
	c0.193,0.095,0.761,0.055,0.761,0.055l5.015-1.054l-1.61,5.769c0,0-0.107,0.316-0.016,0.687c0.055,0.174,0.264,0.312,0.264,0.312
	l2.083,0.994l-9.008,7.406c0,0-0.339,0.237-0.379,0.623C576.282,95.7,576.396,96.213,576.396,96.213z"/>
<path id="XMLID_6033_" class="st2" d="M299.941,116.693c4.747,1.449,8.97,3.406,12.666,5.871l-5.436,11.579
	c-4.023-2.465-8.037-4.295-12.041-5.491c-4.005-1.196-7.602-1.794-10.791-1.794c-3.95,0-7.049,0.707-9.296,2.12
	c-2.247,1.413-3.37,3.425-3.37,6.034c0,2.283,0.734,4.204,2.202,5.762c1.468,1.558,3.316,2.808,5.545,3.751s5.355,1.993,9.377,3.153
	c5.255,1.558,9.54,3.099,12.856,4.621c3.316,1.522,6.143,3.787,8.48,6.795s3.506,6.922,3.506,11.742c0,4.53-1.25,8.507-3.751,11.932
	c-2.501,3.425-5.971,6.062-10.41,7.91c-4.44,1.848-9.522,2.772-15.248,2.772c-5.944,0-11.697-1.115-17.26-3.344
	c-5.563-2.229-10.429-5.227-14.596-8.996l5.708-11.362c3.95,3.624,8.272,6.424,12.965,8.398c4.693,1.975,9.16,2.963,13.4,2.963
	c4.602,0,8.181-0.834,10.736-2.501c2.555-1.667,3.832-3.987,3.832-6.958c0-2.392-0.761-4.367-2.283-5.925
	c-1.522-1.558-3.416-2.782-5.681-3.67c-2.265-0.887-5.391-1.929-9.377-3.125c-5.327-1.558-9.613-3.08-12.856-4.566
	c-3.244-1.486-6.034-3.67-8.372-6.551c-2.338-2.881-3.506-6.732-3.506-11.551c0-4.385,1.187-8.218,3.561-11.498
	c2.373-3.279,5.699-5.807,9.975-7.583c4.276-1.775,9.223-2.664,14.841-2.664C290.319,114.518,295.193,115.244,299.941,116.693z"/>
<path id="XMLID_6031_" class="st2" d="M395.617,193.016l-18.483-60.776l-18.7,60.776h-13.59l-25.822-77.954h14.134l18.918,63.385
	l18.863-63.277l12.884-0.109l18.918,63.385l18.809-63.385h13.59l-26.039,77.954H395.617z"/>
<path id="XMLID_6029_" class="st2" d="M444.216,193.016v-77.954h13.155v77.954H444.216z"/>
<path id="XMLID_6027_" class="st2" d="M490.967,126.858v22.506h35.389v11.688h-35.389v31.965h-13.155v-77.954h52.35l-0.109,11.796
	H490.967z"/>
<polygon id="XMLID_6026_" class="st2" points="598.168,115.058 598.168,126.863 573.486,126.863 573.486,193.011 560.325,193.011 
	560.325,126.863 535.706,126.863 535.706,115.058 "/>
<path id="XMLID_6023_" class="st2" d="M616.218,126.858v21.092h38.053v11.796h-38.053v21.473h43.87v11.796h-57.025v-77.954h55.666
	v11.796H616.218z"/>
<path id="XMLID_6020_" class="st2" d="M730.758,193.016l-41.532-55.884v55.884H676.07v-77.954h12.938l41.75,56.047v-56.047h12.938
	v77.954H730.758z"/>
<path id="XMLID_6017_" class="st2" d="M816.975,120.09c6.124,3.353,10.917,7.991,14.379,13.917
	c3.461,5.925,5.192,12.604,5.192,20.033c0,7.429-1.749,14.098-5.246,20.005c-3.498,5.907-8.327,10.546-14.487,13.917
	c-6.161,3.37-13.138,5.056-20.929,5.056h-31.638v-77.954h31.964C803.928,115.062,810.85,116.738,816.975,120.09z M777.4,181.22
	h19.135c4.965,0,9.495-1.151,13.59-3.452c4.095-2.301,7.312-5.508,9.649-9.622c2.338-4.113,3.506-8.779,3.506-13.998
	c0-5.183-1.205-9.849-3.615-13.999c-2.41-4.149-5.699-7.401-9.867-9.757c-4.168-2.356-8.771-3.533-13.808-3.533H777.4V181.22z"/>
<path id="XMLID_6015_" class="st2" d="M863.672,126.858v21.092h38.053v11.796h-38.053v21.473h43.87v11.796h-57.025v-77.954h55.666
	v11.796H863.672z"/>
<path id="XMLID_6012_" class="st2" d="M958.75,169.423c-0.725,0.073-1.921,0.109-3.588,0.109h-18.483v23.484h-13.155v-77.954h31.638
	c9.93,0,17.649,2.319,23.158,6.958c5.508,4.639,8.263,11.198,8.263,19.679c0,6.233-1.395,11.497-4.186,15.791
	c-2.791,4.295-6.777,7.457-11.959,9.487l17.45,26.039h-14.895L958.75,169.423z M969.187,153.767
	c3.262-2.645,4.893-6.559,4.893-11.742c0-5.037-1.631-8.825-4.893-11.362c-3.262-2.537-7.937-3.805-14.025-3.805h-18.483v30.877
	h18.483C961.25,157.736,965.925,156.413,969.187,153.767z"/>
</svg>
